<?xml version="1.0" encoding="UTF-8"?>
<svg id="Capa_1" data-name="Capa 1" xmlns="http://www.w3.org/2000/svg" viewBox="0 0 547.59 316.33">
  <defs>
    <style>
      .cls-1 {
        fill: #e96c96;
      }

      .cls-2 {
        fill: #f8c6d5;
      }
    </style>
  </defs>
  <g>
    <g>
      <path class="cls-1" d="m24.37,240.22c-7.1-30.8-19.79-105.86-20.73-112.43C1.17,110.08,0,94.59,0,81.34c0-27.1,5.28-44.34,15.84-51.61,3.52-2.35,7.62-3.52,12.08-3.52,10.09,0,19.82,6.8,29.33,20.41,8.8,13.37,15.6,30.62,20.41,51.96,1.29-9.38,2.11-19.94,2.23-31.91,0-7.16,0-12.79-.12-17.01-.47-12.2-1.29-23.81-2.35-34.96l21.82-.59c.59,1.88,1.06,4.34,1.53,7.27,1.99,12.67,2.93,27.57,2.93,44.46,0,13.25-.58,26.04-1.76,38.59-2.47,22.99-5.68,57.42-12.02,66.1-3.4,4.46-7.27,6.69-11.73,6.69-2.11,0-3.99-.59-5.51-1.88-4.69-3.64-10.97-32.08-16.6-48.03-1.64-4.69-3.87-11.5-6.8-20.53-7.39-24.98-13.02-37.42-17.13-37.42-2.46,0-3.75,4.93-3.75,14.78,0,15.13,2.23,38.12,6.57,68.74.7,4.69,12.11,71.42,17.1,87.56l-27.68-.23Z"/>
      <path class="cls-1" d="m126.35,28.32c.7-8.91,1.29-13.37,1.52-13.37,6.1,1.29,12.32,1.88,18.65,1.88,4.57,0,8.56-.12,12.08-.35,5.99-.35,13.49-1.29,22.64-2.93.23,34.25,2.11,62.87,5.74,85.86,2.94,18.3,6.69,32.37,11.26,42.35l1.06,2.82c0,.23-14.78,4.57-44.22,13.14l.82-22.17-16.19,3.64-3.17,19-33.9,3.4c11.84-33.2,19.71-77.54,23.69-133.25Zm30.14,89.38l.12-48.33-6.57,2.23c-2.23,15.84-4.58,31.67-7.16,47.51l13.61-1.41Z"/>
      <path class="cls-1" d="m210.12,160.63c-2.35-15.25-3.99-26.28-4.93-32.84-2.47-17.71-3.64-33.2-3.64-46.45,0-27.1,5.28-44.34,15.84-51.61,3.52-2.35,7.62-3.52,12.08-3.52,10.09,0,19.83,6.8,29.33,20.41,8.8,13.37,15.6,30.62,20.41,51.96,1.29-9.38,2.11-19.94,2.23-31.91,0-7.16,0-12.79-.12-17.01-.47-12.2-1.29-23.81-2.35-34.96l21.82-.59c.59,1.88,1.06,4.34,1.53,7.27,1.99,12.67,2.93,27.57,2.93,44.46,0,13.25-.58,26.04-1.76,38.59-2.47,22.99-6.92,38.83-13.26,47.51-3.4,4.46-7.27,6.69-11.73,6.69-2.11,0-3.99-.59-5.51-1.88-4.69-3.64-9.74-13.49-15.37-29.44-1.64-4.69-3.87-11.5-6.8-20.53-7.39-24.98-13.02-37.42-17.13-37.42-2.46,0-3.75,4.93-3.75,14.78,0,15.13,2.23,38.12,6.57,68.74.7,4.69,1.06,7.39,1.29,7.98l-27.68-.23Z"/>
      <path class="cls-1" d="m321.1,145.74c-1.88-17.48-2.7-38.94-2.7-64.16,0-16.54.47-26.04,1.64-28.74l28.86-3.64c-3.75,19.82-5.63,39.53-5.63,58.88,0,13.14.82,26.16,2.58,39.06l-23.11,10.56c-.58-2.93-1.17-6.92-1.64-11.96Z"/>
      <path class="cls-1" d="m379.3,96.12c0-16.54.23-33.08.82-49.74-4.11,1.64-8.45,3.75-12.79,6.33l-9.97-24.75c5.28-3.17,10.56-5.87,15.72-7.86,5.16-1.99,10.2-3.4,15.01-4.46,4.81-.94,9.5-1.41,13.96-1.41,14.55,0,26.63,4.11,36.36,12.43,6.1,5.4,10.56,11.73,13.26,19.12,1.76,4.93,2.7,10.09,2.7,15.48,0,11.5-4.22,22.64-12.67,33.55-6.68,8.56-15.83,16.42-27.68,23.46,10.44,5.51,22.41,9.85,35.89,13.02,9.85,2.35,19.24,3.52,28.15,3.52,4.69,0,9.27-.35,13.61-1.06l-4.93,26.86h-3.52c-17.83,0-36.71-4.22-56.42-12.79-8.68-3.75-15.95-7.74-22.05-11.96,0,6.45,0,12.9.11,19.35-2.23.94-6.1,1.99-11.61,3.05-4.46.7-8.33,1.76-11.62,3.05-1.52-12.08-2.35-33.78-2.35-65.22Zm45.51-16.19c3.64-5.4,5.4-10.79,5.4-16.07,0-.23,0-1.06-.11-2.46-.12-1.41-.59-3.28-1.64-5.51-1.06-2.23-2.47-4.22-4.22-5.98-1.88-1.76-4.11-3.28-6.57-4.57-2.58-1.17-5.4-1.99-8.57-2.58-1.64,18.18-2.82,36.48-3.52,54.9,8.57-5.63,15.01-11.5,19.24-17.71Zm75.9,31.55l-17.95,3.64-.58,5.98c-.23,2.82-.35,4.46-.47,4.93-1.76.35-3.87.47-6.33.47-7.74,0-14.67-.82-21-2.46,5.99-22.17,10.68-47.27,14.08-75.42,1.29-11.5,2.11-22.76,2.7-33.67,6.33,1.17,12.78,1.76,19.12,1.76,10.79,0,23.23-1.06,37.42-3.17-.23,7.86-.35,15.25-.47,22.29,0,9.97,0,17.24.11,21.82.35,21.7,1.88,39.41,4.58,53.14,1.05,6.45,2.35,11.73,3.75,16.07,2.11,7.51,4.46,12.67,6.92,15.6.94,1.29,2.05,55.58,5.01,84.9l-45.51,12.9-1.37-128.77Zm.7-17.83l1.29-29.56-10.91,2.11-5.63,28.86,15.25-1.41Z"/>
      <path class="cls-2" d="m100.36,299.33c-9.17-5.04-13.8-14.41-13.8-27.91,0-2.32.1-4.63.4-6.95l25.39-.3c-.6,2.22-.91,4.33-.91,6.15,0,3.83,1.11,6.85,3.32,8.97,1.51,1.61,3.32,2.42,5.44,2.42,1.21,0,2.32-.3,3.22-1.01,1.31-1.11,2.01-2.62,2.01-4.63s-.7-4.13-2.01-6.75c-2.22-4.03-4.94-7.56-8.36-10.38-1.82-1.51-6.65-4.94-14.31-10.17-11.18-7.45-16.72-18.13-16.72-32.04,0-4.13.6-8.36,1.81-12.49,1.71-6.15,4.53-11.58,8.46-16.12,4.23-4.94,9.27-8.46,15.21-10.48,3.83-1.31,7.86-2.01,11.89-2.01,3.22.1,6.25.6,9.17,1.71,5.94,2.21,10.58,6.14,13.9,11.89,3.02,5.34,4.53,11.39,4.53,18.24,0,1.01-.1,2.72-.2,5.34-.1,2.62-.91,6.24-2.32,10.98l-23.37.2c.7-3.43,1.01-6.55,1.01-9.37,0-5.54-.91-9.57-2.82-12.09-1.01-1.21-2.11-1.91-3.32-1.91-.71,0-1.41.2-2.22.7-1.71,1.11-3.22,3.12-4.43,5.94-1.01,2.32-1.41,4.63-1.41,7.05,0,7.45,3.63,13.3,11.08,17.63,11.69,6.75,19.64,15.31,23.77,25.79,1.82,4.74,2.72,9.37,2.72,14s-.81,9.17-2.52,12.99c-2.32,5.44-6.04,9.77-11.08,13.1-5.14,3.32-11.18,4.94-18.34,4.94-6.04,0-11.08-1.11-15.21-3.43Z"/>
      <path class="cls-2" d="m181.07,202.72h-24.78v-22.16l82.1-3.02,3.02,25.09h-38.79c-.61,7.55-.81,16.82-.81,27.8,0,18.34.5,40.2,1.51,65.58l-24.68,3.73,2.42-97.01Zm76.77,89.16c-4.33,4.84-9.67,7.25-15.82,7.25-7.76,0-14-3.53-18.84-10.68-7.36-10.58-10.98-29.92-10.98-58.23,0-6.85.2-13.4.5-19.75h23.57c-.4,4.63-.7,9.27-.81,13.9-.2,3.63-.3,7.96-.3,12.79,0,19.24,2.22,28.81,6.55,28.81,2.72,0,5.24-2.12,7.36-6.45,3.93-8.26,6.24-25.09,6.95-50.47,0-2.22,0-4.33.1-6.45l-.2-21.16,22.66.71c-.4,7.25-.6,14.81-.6,22.77,0,25.89,1.71,56.32,5.03,91.17l-24.98,3.83-.2-8.06Z"/>
      <path class="cls-2" d="m296.74,299.84c1.41-8.67,2.12-30.83,2.12-66.29v-33.04c-1.92.4-3.73.91-5.64,1.51l-7.56-22.06c7.96-2.92,16.02-4.33,23.98-4.33s14.71,1.21,21.46,3.52c10.38,4.13,18.63,9.77,24.98,16.92,6.04,6.85,10.17,14.81,12.49,23.68,1.21,4.94,1.81,9.97,1.81,15.11,0,8.26-1.41,16.22-4.33,23.98-3.22,8.46-8.06,16.02-14.41,22.47-12.39,12.59-28.01,18.94-46.85,18.94-2.62,0-5.34-.1-8.06-.4Zm46.04-49.77c2.01-4.63,3.02-9.47,3.02-14.41,0-7.66-2.52-14.21-7.45-19.64-4.43-4.64-10.38-7.86-17.93-9.57l-.3,65.28c10.78-4.74,18.33-11.89,22.67-21.66Z"/>
      <path class="cls-2" d="m382.38,288.76c-1.61-15.01-2.32-33.45-2.32-55.11,0-14.21.4-22.36,1.41-24.68l24.78-3.12c-3.22,17.03-4.84,33.95-4.84,50.57,0,11.28.7,22.47,2.22,33.55l-19.85,9.07c-.5-2.52-1.01-5.94-1.41-10.28Zm2.62-91.07c-1.61-1.61-2.42-3.73-2.42-6.14,0-3.83,1.51-7.25,4.43-10.38,2.12-2.11,4.53-3.32,7.36-3.63,4.53,0,8.06,1.71,10.68,5.04,1.61,2.11,2.42,4.23,2.42,6.35,0,2.32-.81,4.53-2.42,6.75-1.61,2.12-3.63,3.63-6.04,4.53-1.91.7-3.73,1.11-5.34,1.11-3.63,0-6.54-1.21-8.66-3.63Z"/>
      <path class="cls-2" d="m445.46,293.89c-7.56-1.31-13.9-4.43-18.94-9.47-8.67-8.56-13-20.85-13-36.97l.1-4.74c.2-6.25,1.51-13.1,3.93-20.55,2.42-7.45,5.54-13.8,9.47-19.14,7.25-9.87,15.72-14.81,25.49-14.81s18.03,4.43,24.08,13.3c3.63,5.44,6.25,11.89,7.86,19.54,1.11,5.64,1.71,11.39,1.71,17.23,0,14.81-3.02,27.6-8.97,38.28-3.63,6.45-7.96,11.08-13.1,14.1-4.23,2.42-8.76,3.63-13.5,3.63-1.61,0-3.33-.1-5.14-.4Zm10.68-26.8c2.82-5.14,4.23-12.59,4.23-22.36,0-4.13-.31-8.26-.91-12.59-.81-5.04-2.01-9.07-3.52-12.09-1.61-3.02-3.43-4.64-5.64-4.74-2.82.4-5.34,2.52-7.46,6.25-1.81,3.22-3.33,7.45-4.43,12.59-1.01,4.63-1.51,9.77-1.51,15.31,0,8.36,1.41,14.61,4.23,18.94,1.82,2.82,4.13,4.23,6.95,4.23h.81c2.92-.3,5.34-2.11,7.25-5.54Z"/>
    </g>
    <path class="cls-2" d="m522.86,311.86h0c-4.91-15.36-21.34-23.83-36.7-18.92h0c15.36-4.91,23.83-21.34,18.92-36.7h0c4.91,15.36,21.34,23.83,36.7,18.92h0c-15.36,4.91-23.83,21.34-18.92,36.7Z"/>
    <path class="cls-2" d="m42.91,316.33h0c7.17-14.44,1.28-31.96-13.16-39.13h0c14.44,7.17,31.96,1.28,39.13-13.16h0c-7.17,14.44-1.28,31.96,13.16,39.13h0c-14.44-7.17-31.96-1.28-39.13,13.16Z"/>
  </g>
  <circle class="cls-1" cx="332.95" cy="19.48" r="19.48"/>
</svg>